<mxfile modified="2021-04-14T10:35:08.958Z" host="app.diagrams.net" agent="5.0 (X11; Linux x86_64) AppleWebKit/537.36 (KHTML, like Gecko) Chrome/78.0.3904.70 Safari/537.36" etag="LIjmDio5wFrqI1XljRVK" version="14.6.0" type="github">
  <diagram id="Ht1M8jgEwFfnCIfOTk4-" name="Page-1">
    <mxGraphModel dx="1422" dy="776" grid="1" gridSize="10" guides="1" tooltips="1" connect="1" arrows="1" fold="1" page="1" pageScale="1" pageWidth="1169" pageHeight="827" math="0" shadow="0">
      <root>
        <mxCell id="0" />
        <mxCell id="1" parent="0" />
        <mxCell id="x4faRQbrMNJ7h53etuVp-13" value="" style="rounded=1;whiteSpace=wrap;html=1;fillColor=#dae8fc;strokeColor=#6c8ebf;" vertex="1" parent="1">
          <mxGeometry x="690" y="144.9" width="600" height="430" as="geometry" />
        </mxCell>
        <mxCell id="x4faRQbrMNJ7h53etuVp-15" value="" style="rounded=1;whiteSpace=wrap;html=1;strokeWidth=1;strokeColor=#23445d;fillColor=#bac8d3;" vertex="1" parent="1">
          <mxGeometry x="735" y="194.9" width="195" height="135.1" as="geometry" />
        </mxCell>
        <mxCell id="x4faRQbrMNJ7h53etuVp-1" value="" style="shape=image;html=1;verticalAlign=top;verticalLabelPosition=bottom;labelBackgroundColor=#ffffff;imageAspect=0;aspect=fixed;image=https://cdn4.iconfinder.com/data/icons/socialcones/508/Github-128.png" vertex="1" parent="1">
          <mxGeometry x="380" y="170" width="128" height="128" as="geometry" />
        </mxCell>
        <mxCell id="x4faRQbrMNJ7h53etuVp-2" value="" style="shape=image;html=1;verticalAlign=top;verticalLabelPosition=bottom;labelBackgroundColor=#ffffff;imageAspect=0;aspect=fixed;image=https://cdn3.iconfinder.com/data/icons/social-media-2169/24/social_media_social_media_logo_git-128.png" vertex="1" parent="1">
          <mxGeometry x="380" y="460" width="128" height="128" as="geometry" />
        </mxCell>
        <mxCell id="x4faRQbrMNJ7h53etuVp-4" value="" style="points=[];aspect=fixed;html=1;align=center;shadow=0;dashed=0;image;image=img/lib/allied_telesis/computer_and_terminals/Personal_Computer.svg;" vertex="1" parent="1">
          <mxGeometry x="80" y="430" width="119.39" height="161.8" as="geometry" />
        </mxCell>
        <mxCell id="x4faRQbrMNJ7h53etuVp-7" value="" style="endArrow=classic;html=1;" edge="1" parent="1">
          <mxGeometry width="50" height="50" relative="1" as="geometry">
            <mxPoint x="240" y="520" as="sourcePoint" />
            <mxPoint x="360" y="520" as="targetPoint" />
          </mxGeometry>
        </mxCell>
        <mxCell id="x4faRQbrMNJ7h53etuVp-8" value="" style="endArrow=classic;html=1;" edge="1" parent="1">
          <mxGeometry width="50" height="50" relative="1" as="geometry">
            <mxPoint x="440" y="450" as="sourcePoint" />
            <mxPoint x="440" y="320" as="targetPoint" />
          </mxGeometry>
        </mxCell>
        <mxCell id="x4faRQbrMNJ7h53etuVp-9" value="" style="html=1;dashed=0;whitespace=wrap;fillColor=#2875E2;strokeColor=#ffffff;points=[[0.005,0.63,0],[0.1,0.2,0],[0.9,0.2,0],[0.5,0,0],[0.995,0.63,0],[0.72,0.99,0],[0.5,1,0],[0.28,0.99,0]];shape=mxgraph.kubernetes.icon;prIcon=pod" vertex="1" parent="1">
          <mxGeometry x="715" y="194.9" width="50" height="40.5" as="geometry" />
        </mxCell>
        <mxCell id="x4faRQbrMNJ7h53etuVp-10" value="" style="html=1;dashed=0;whitespace=wrap;fillColor=#2875E2;strokeColor=#ffffff;points=[[0.005,0.63,0],[0.1,0.2,0],[0.9,0.2,0],[0.5,0,0],[0.995,0.63,0],[0.72,0.99,0],[0.5,1,0],[0.28,0.99,0]];shape=mxgraph.kubernetes.icon;prIcon=pod" vertex="1" parent="1">
          <mxGeometry x="725" y="356.9" width="40" height="48" as="geometry" />
        </mxCell>
        <mxCell id="x4faRQbrMNJ7h53etuVp-12" value="" style="html=1;dashed=0;whitespace=wrap;fillColor=#2875E2;strokeColor=#ffffff;points=[[0.005,0.63,0],[0.1,0.2,0],[0.9,0.2,0],[0.5,0,0],[0.995,0.63,0],[0.72,0.99,0],[0.5,1,0],[0.28,0.99,0]];shape=mxgraph.kubernetes.icon;prIcon=node" vertex="1" parent="1">
          <mxGeometry x="705" y="104.9" width="60" height="90" as="geometry" />
        </mxCell>
        <mxCell id="x4faRQbrMNJ7h53etuVp-14" value="&lt;font style=&quot;font-size: 22px&quot;&gt;NODE&lt;/font&gt;" style="text;html=1;strokeColor=none;fillColor=none;align=center;verticalAlign=middle;whiteSpace=wrap;rounded=0;strokeWidth=3;" vertex="1" parent="1">
          <mxGeometry x="775" y="154.9" width="40" height="20" as="geometry" />
        </mxCell>
        <mxCell id="x4faRQbrMNJ7h53etuVp-16" value="" style="shape=image;html=1;verticalAlign=top;verticalLabelPosition=bottom;labelBackgroundColor=#ffffff;imageAspect=0;aspect=fixed;image=https://cdn4.iconfinder.com/data/icons/logos-brands-5/24/jenkins-128.png;strokeWidth=1;" vertex="1" parent="1">
          <mxGeometry x="757.8000000000001" y="210" width="74.4" height="74.4" as="geometry" />
        </mxCell>
        <mxCell id="x4faRQbrMNJ7h53etuVp-17" value="&lt;font style=&quot;font-size: 21px&quot;&gt;Jenkins CI&lt;/font&gt;" style="text;html=1;strokeColor=none;fillColor=none;align=center;verticalAlign=middle;whiteSpace=wrap;rounded=0;" vertex="1" parent="1">
          <mxGeometry x="760" y="290" width="105" height="20" as="geometry" />
        </mxCell>
      </root>
    </mxGraphModel>
  </diagram>
</mxfile>
